<svg width="376" height="376" viewBox="0 0 376 376" fill="none" xmlns="http://www.w3.org/2000/svg">
<path d="M371.691 90.5442C373.655 88.5777 374.993 86.0733 375.534 83.3472C376.076 80.6212 375.797 77.7958 374.734 75.2279C373.671 72.66 371.87 70.4648 369.56 68.9195C367.25 67.3742 364.534 66.5482 361.754 66.5457H310.195V14.9866C310.193 12.2072 309.367 9.49097 307.821 7.18083C306.276 4.87068 304.081 3.07028 301.513 2.00701C298.945 0.943743 296.12 0.665298 293.394 1.20685C290.668 1.74839 288.163 3.08564 286.197 5.0497L239.325 51.9217C236.687 54.5562 235.203 58.1304 235.2 61.8585V115.03L198.04 152.19C192.484 150.712 186.663 150.529 181.026 151.656C175.388 152.782 170.085 155.188 165.524 158.687C160.963 162.187 157.266 166.687 154.719 171.841C152.171 176.994 150.841 182.664 150.83 188.413C150.833 193.749 151.974 199.024 154.178 203.884C156.383 208.744 159.599 213.077 163.612 216.595C167.625 220.112 172.343 222.732 177.449 224.281C182.556 225.829 187.935 226.269 193.226 225.572C198.516 224.875 203.597 223.057 208.129 220.239C212.661 217.421 216.539 213.668 219.504 209.231C222.469 204.795 224.453 199.776 225.324 194.511C226.194 189.246 225.93 183.856 224.551 178.701L261.711 141.541H314.882C318.611 141.538 322.185 140.054 324.819 137.416L371.691 90.5442ZM188.328 0.924963C210.221 0.896444 231.949 4.7103 252.524 12.193L226.051 38.6663C224.888 39.8287 223.801 41.1036 222.845 42.416C191.084 34.915 157.743 37.9772 127.88 51.1383C98.0171 64.2993 73.2613 86.841 57.368 115.344C41.4747 143.847 35.3112 176.756 39.8124 209.078C44.3135 241.401 59.2339 271.374 82.31 294.45C105.386 317.526 135.359 332.446 167.681 336.947C200.004 341.448 232.913 335.285 261.416 319.392C289.919 303.498 312.46 278.743 325.621 248.88C338.782 219.017 341.845 185.676 334.344 153.915C335.656 152.94 336.912 151.853 338.093 150.69L364.529 124.217C372.018 144.791 375.838 166.519 375.816 188.413C375.816 291.962 291.878 375.901 188.328 375.901C84.7784 375.901 0.840088 291.962 0.840088 188.413C0.840088 84.8633 84.7784 0.924963 188.328 0.924963ZM188.328 75.9201C198.04 75.9201 207.452 77.1576 216.451 79.4824V107.268L208.689 115.03C208.378 115.337 208.071 115.65 207.771 115.968C196.658 113.004 185.013 112.633 173.734 114.882C162.455 117.132 151.843 121.943 142.718 128.943C133.593 135.943 126.197 144.946 121.103 155.257C116.008 165.568 113.349 176.912 113.333 188.413C113.34 199.085 115.626 209.632 120.036 219.351C124.446 229.069 130.879 237.734 138.906 244.767C146.933 251.8 156.369 257.038 166.582 260.133C176.796 263.227 187.552 264.106 198.133 262.711C208.713 261.316 218.874 257.679 227.936 252.042C236.998 246.406 244.753 238.9 250.683 230.027C256.612 221.154 260.579 211.117 262.32 200.588C264.06 190.059 263.533 179.28 260.773 168.97L261.711 168.052L269.473 160.29H297.277C303.142 183.004 301.759 206.984 293.321 228.874C284.883 250.764 269.813 269.468 250.219 282.369C230.625 295.27 207.488 301.722 184.046 300.823C160.604 299.924 138.029 291.719 119.48 277.355C100.932 262.991 87.3386 243.188 80.6018 220.717C73.8651 198.245 74.3224 174.23 81.9096 152.031C89.4968 129.832 103.834 110.561 122.916 96.9134C141.998 83.2662 164.868 75.9261 188.328 75.9201Z" fill="#204231"/>
</svg>
