<svg width="419" height="401" viewBox="0 0 419 401" fill="none" xmlns="http://www.w3.org/2000/svg">
<path d="M190.155 14.0787C196.19 -4.49494 222.466 -4.49494 228.501 14.0787L264.095 123.625C266.794 131.931 274.534 137.555 283.268 137.555L398.452 137.555C417.982 137.555 426.101 162.546 410.302 174.025L317.116 241.728C310.05 246.862 307.094 255.961 309.793 264.268L345.386 373.814C351.421 392.388 330.163 407.833 314.363 396.354L221.178 328.65C214.112 323.517 204.544 323.517 197.478 328.65L104.293 396.354C88.4929 407.833 67.2346 392.388 73.2695 373.814L108.863 264.268C111.562 255.961 108.606 246.862 101.54 241.728L8.35406 174.025C-7.4456 162.546 0.674347 137.555 20.2038 137.555L135.388 137.555C144.121 137.555 151.862 131.931 154.561 123.625L190.155 14.0787Z" fill="#204231"/>
</svg>
