<svg width="348" height="437" viewBox="0 0 348 437" fill="none" xmlns="http://www.w3.org/2000/svg">
<path d="M84.4721 279.157H264.184M129.4 420.277H219.256H129.4ZM17.0801 158.197C17.0801 120.769 33.6473 84.8749 63.137 58.4097C92.6267 31.9446 132.623 17.0767 174.328 17.0767C216.033 17.0767 256.029 31.9446 285.519 58.4097C315.009 84.8749 331.576 120.769 331.576 158.197C331.591 180.918 325.467 203.305 313.73 223.438C301.993 243.57 284.992 260.849 264.184 273.794L252.009 325.525C250.397 335.06 245.03 343.76 236.882 350.048C228.733 356.336 218.344 359.795 207.597 359.797H141.059C130.313 359.795 119.923 356.336 111.775 350.048C103.626 343.76 98.2595 335.06 96.6476 325.525L84.4721 274.016C63.6571 261.025 46.6556 243.706 34.9199 223.537C23.1843 203.368 17.0634 180.95 17.0801 158.197V158.197Z" stroke="#204231" stroke-width="32.256" stroke-linejoin="round"/>
</svg>
